<svg width="112" height="48" viewBox="0 0 112 48" fill="none" xmlns="http://www.w3.org/2000/svg">
<path d="M106.791 19.2944C108.649 20.5453 110.013 22.0616 110.013 24.2222C110.013 28.3161 106.071 30.4389 102.205 30.4389C98.9447 30.4389 94.9266 29.4533 94.9266 29.4533V23.0851H95.7605C95.7605 23.0851 98.9068 29.3775 103.152 29.3775C104.82 29.3775 105.806 28.5436 105.806 27.4443C105.806 25.7385 103.493 24.6392 101.067 23.502C97.8833 21.9858 94.2443 20.28 94.2443 16.5651C94.2443 13.4189 96.2533 11.7131 98.6414 10.9929C96.8219 9.81778 95.4573 8.26361 95.4573 6.02713C95.4573 1.55416 99.3995 0 102.735 0C105.313 0 109.672 1.44045 109.672 1.44045L109.634 7.6192H108.914C108.914 7.6192 105.616 1.66788 100.65 1.66788C99.8544 1.66788 98.8309 2.00904 98.8309 2.76717C98.8309 4.13181 101.143 5.2311 103.607 6.4062C107.208 8.07408 111.226 9.9694 111.226 13.6463C111.226 16.4893 109.293 18.4226 106.791 19.2944ZM105.616 18.233C106.526 18.3088 107.019 17.6644 107.019 16.8684C107.019 15.1626 103.986 13.798 102.28 12.9261C101.03 12.2817 100.006 12.0543 99.2479 12.0543C98.1865 12.0543 97.6179 12.547 97.6179 13.1915C97.6179 15.1247 104.403 18.1193 105.616 18.233Z" fill="black"/>
<path d="M90.2128 46.1149C90.5918 46.4308 90.4655 46.9994 89.8969 46.9994H83.0737C81.9365 46.9994 81.052 46.1149 81.052 44.9777V44.03C78.7145 46.4308 75.8715 47.568 73.0285 47.568C66.9635 47.568 61.1511 42.3242 61.1511 32.5949C61.1511 22.2338 68.2902 17.7482 74.6079 17.7482C77.0087 17.7482 79.2831 18.38 81.052 19.6435V12.6308C81.052 12.3781 81.052 11.999 80.6098 12.0622C79.8517 12.1254 79.5989 11.0514 80.3571 10.6723C81.1784 10.2932 86.3589 7.95568 88.0647 7.32391C88.9492 6.94484 89.3283 7.38708 89.3283 7.8925V43.8405C89.3283 45.1672 89.581 45.6726 90.2128 46.1149ZM81.052 42.3242V21.0966C80.2307 20.3385 78.8408 19.2644 76.6296 19.2644C71.7018 19.2644 69.4906 25.0136 69.4906 32.1527C69.4906 41.4397 72.3335 45.3567 75.6188 45.3567C78.2722 45.3567 80.1044 43.5246 81.052 42.3242Z" fill="black"/>
<path d="M57.287 46.1149C57.7292 46.4308 57.5397 46.9994 56.9711 46.9994H47.6208C47.0523 46.9994 46.9259 46.4308 47.305 46.1149C47.8736 45.6726 48.1263 45.1672 48.1263 43.8405V25.6454C48.1263 23.1815 47.305 20.9702 44.5252 20.9702C42.4403 20.9702 40.7345 22.3601 39.7237 23.4342V43.8405C39.7237 45.1672 39.9132 45.6726 40.545 46.1149C40.924 46.4308 40.7977 46.9994 40.2291 46.9994H30.8156C30.247 46.9994 30.1207 46.4308 30.5629 46.1149C31.1315 45.6726 31.3842 45.1672 31.3842 43.8405V21.3493C31.3842 20.0226 31.1315 19.5172 30.5629 19.0749C30.1207 18.759 30.247 18.1273 30.8156 18.1273H37.6388C38.776 18.1273 39.7237 19.0749 39.7237 20.2121V21.9179C41.1136 20.3385 44.2724 17.5587 49.2635 17.5587C53.6859 17.5587 56.4657 21.0334 56.4657 24.3186V43.8405C56.4657 45.1672 56.7184 45.6726 57.287 46.1149Z" fill="black"/>
<path d="M25.7846 41.3766C26.1004 40.9975 26.8586 41.4397 26.5427 42.0083C25.0264 44.8513 20.4776 47.568 14.2231 47.568C5.88365 47.568 0.324027 41.8188 0.00813936 32.974C-0.118216 28.7411 1.20851 24.8872 3.73561 22.0443C6.38907 19.1381 10.0534 17.5587 14.3494 17.5587C21.9307 17.5587 26.3532 21.9811 26.3532 26.7194C26.3532 37.5227 9.927 34.5534 12.8963 39.9235C12.8963 39.9235 16.1184 43.9668 20.9199 43.9668C23.5102 43.9668 25.0264 42.4506 25.7846 41.3766ZM13.3386 19.0117C5.63094 19.0117 7.1472 34.1112 11.1906 37.8386C12.3277 33.2898 18.3928 32.5949 18.7719 25.7085C19.0246 21.7915 17.0029 19.0117 13.3386 19.0117Z" fill="black"/>
</svg>
